<svg width="48" height="48" viewBox="0 0 48 48" fill="none" xmlns="http://www.w3.org/2000/svg">
<circle cx="24" cy="24" r="24" fill="#676CEF"/>
<path d="M14.3856 23.6097C14.3913 20.82 15.368 18.1193 17.148 15.9712C17.3518 15.7259 17.4499 15.4097 17.4206 15.0921C17.3914 14.7745 17.2371 14.4816 16.9918 14.2777C16.7466 14.0739 16.4304 13.9758 16.1128 14.0051C15.7952 14.0344 15.5023 14.1886 15.2984 14.4339C13.1663 17.0164 12 20.2608 12 23.6097C12 26.9586 13.1663 30.203 15.2984 32.7855C15.4113 32.9211 15.5527 33.0301 15.7126 33.1048C15.8724 33.1796 16.0468 33.2182 16.2232 33.2179C16.5038 33.2184 16.7758 33.1207 16.9918 32.9416C17.1135 32.8408 17.214 32.717 17.2877 32.5772C17.3614 32.4375 17.4068 32.2846 17.4213 32.1273C17.4358 31.97 17.4191 31.8114 17.3722 31.6605C17.3253 31.5097 17.2491 31.3696 17.148 31.2482C15.368 29.1001 14.3913 26.3994 14.3856 23.6097Z" fill="#676CEF"/>
<path d="M23.9938 26.0111C25.3205 26.0111 26.3959 24.9357 26.3959 23.6091C26.3959 22.2825 25.3205 21.207 23.9938 21.207C22.6672 21.207 21.5918 22.2825 21.5918 23.6091C21.5918 24.9357 22.6672 26.0111 23.9938 26.0111Z" fill="#676CEF"/>
<path d="M30.0709 19.3822C30.0016 19.229 29.9011 19.0921 29.7756 18.9803C29.6502 18.8685 29.5027 18.7842 29.3426 18.733C29.1826 18.6817 29.0136 18.6647 28.8465 18.6828C28.6794 18.701 28.518 18.754 28.3728 18.8385C28.2275 18.923 28.1015 19.037 28.0031 19.1732C27.9046 19.3094 27.8359 19.4647 27.8012 19.6292C27.7665 19.7936 27.7668 19.9635 27.8019 20.1278C27.837 20.2922 27.9063 20.4473 28.0051 20.5832C28.5322 21.4961 28.8096 22.5316 28.8096 23.5858C28.8096 24.6399 28.5322 25.6754 28.0051 26.5883C27.9223 26.7237 27.8671 26.8742 27.8429 27.0311C27.8186 27.1879 27.8256 27.3481 27.8636 27.5022C27.9016 27.6563 27.9697 27.8014 28.0641 27.929C28.1585 28.0566 28.2772 28.1643 28.4134 28.2457C28.6045 28.3527 28.8191 28.4104 29.038 28.4139C29.2453 28.4151 29.4493 28.3626 29.6303 28.2616C29.8113 28.1606 29.9631 28.0144 30.0709 27.8374C30.8018 26.557 31.1862 25.1081 31.1862 23.6338C31.1862 22.1595 30.8018 20.7106 30.0709 19.4302V19.3822Z" fill="#676CEF"/>
<path d="M19.5735 18.9742C19.4381 18.8914 19.2876 18.8363 19.1307 18.812C18.9739 18.7877 18.8138 18.7948 18.6596 18.8327C18.5055 18.8707 18.3604 18.9388 18.2328 19.0332C18.1052 19.1276 17.9975 19.2463 17.9161 19.3826C17.1852 20.663 16.8008 22.1118 16.8008 23.5862C16.8008 25.0605 17.1852 26.5093 17.9161 27.7897C18.0178 27.9757 18.167 28.1315 18.3484 28.2412C18.5298 28.3509 18.737 28.4106 18.949 28.4143C19.1679 28.4108 19.3825 28.3531 19.5735 28.2461C19.7097 28.1647 19.8285 28.057 19.9229 27.9294C20.0173 27.8018 20.0854 27.6567 20.1234 27.5026C20.1613 27.3485 20.1684 27.1884 20.1441 27.0315C20.1198 26.8746 20.0647 26.7241 19.9819 26.5887C19.4548 25.6758 19.1773 24.6403 19.1773 23.5862C19.1773 22.532 19.4548 21.4965 19.9819 20.5836C20.1341 20.3144 20.1766 19.9968 20.1006 19.697C20.0245 19.3972 19.8357 19.1383 19.5735 18.9742Z" fill="#676CEF"/>
<path d="M32.7021 14.4339C32.6012 14.3124 32.4773 14.2121 32.3376 14.1385C32.1979 14.0649 32.045 14.0196 31.8878 14.0051C31.5702 13.9758 31.254 14.0739 31.0087 14.2777C30.7634 14.4816 30.6092 14.7745 30.5799 15.0921C30.5506 15.4097 30.6487 15.7259 30.8526 15.9712C32.6252 18.122 33.5946 20.8225 33.5946 23.6097C33.5946 26.3969 32.6252 29.0973 30.8526 31.2482C30.7514 31.3696 30.6752 31.5097 30.6284 31.6605C30.5815 31.8114 30.5648 31.97 30.5793 32.1273C30.5938 32.2846 30.6392 32.4375 30.7129 32.5772C30.7866 32.717 30.8871 32.8408 31.0087 32.9416C31.2248 33.1207 31.4967 33.2184 31.7774 33.2179C31.9538 33.2182 32.1281 33.1796 32.288 33.1048C32.4478 33.0301 32.5892 32.9211 32.7021 32.7855C34.8343 30.203 36.0005 26.9586 36.0005 23.6097C36.0005 20.2608 34.8343 17.0164 32.7021 14.4339Z" fill="#676CEF"/>
<path d="M30.053 30.1875H19.0004C18.5646 30.1875 18.2109 29.8375 18.2109 29.4063C18.2109 28.975 18.5646 28.625 19.0004 28.625H30.053C30.4888 28.625 30.8425 28.975 30.8425 29.4063C30.8425 29.8375 30.4888 30.1875 30.053 30.1875Z" fill="white"/>
<path d="M30.053 26.0215H19.0004C18.5646 26.0215 18.2109 25.6715 18.2109 25.2402C18.2109 24.809 18.5646 24.459 19.0004 24.459H30.053C30.4888 24.459 30.8425 24.809 30.8425 25.2402C30.8425 25.6715 30.4888 26.0215 30.053 26.0215Z" fill="white"/>
<path d="M24.7899 21.8545H19.0004C18.5646 21.8545 18.2109 21.5045 18.2109 21.0732C18.2109 20.642 18.5646 20.292 19.0004 20.292H24.7899C25.2257 20.292 25.5794 20.642 25.5794 21.0732C25.5794 21.5045 25.2257 21.8545 24.7899 21.8545Z" fill="white"/>
<path d="M31.1053 35.9168H16.8947C15.2979 35.9168 14 34.6324 14 33.0522V15.8646C14 14.2844 15.2979 13 16.8947 13H31.1053C32.7021 13 34 14.2844 34 15.8646V33.0522C34 34.6324 32.7021 35.9168 31.1053 35.9168ZM16.8947 14.5625C16.1695 14.5625 15.5789 15.1469 15.5789 15.8646V33.0522C15.5789 33.7699 16.1695 34.3543 16.8947 34.3543H31.1053C31.8305 34.3543 32.4211 33.7699 32.4211 33.0522V15.8646C32.4211 15.1469 31.8305 14.5625 31.1053 14.5625H16.8947Z" fill="white"/>
</svg>
