<svg width="48" height="48" viewBox="0 0 48 48" fill="none" xmlns="http://www.w3.org/2000/svg">
<circle cx="24" cy="24" r="24" fill="#FF6363"/>
<path d="M34.2438 28.9136C33.906 28.7539 33.5144 28.745 33.1695 28.8891C33.1539 28.8956 33.1387 28.9025 33.1236 28.9099C30.7034 29.8937 28.0439 29.885 25.6282 28.884C23.1946 27.8756 21.2998 25.9807 20.2928 23.5485C19.2396 21.0048 19.3032 18.1148 20.4652 15.6239C20.6161 15.3052 20.6337 14.947 20.5148 14.6152C20.3959 14.2834 20.1548 14.0177 19.8363 13.8672C19.4984 13.7074 19.1067 13.6983 18.7665 13.8406C15.6743 15.1096 13.2619 17.5055 11.9736 20.5871C10.6852 23.6687 10.6753 27.067 11.9454 30.156C13.2156 33.2451 15.6139 35.6551 18.6986 36.9421C20.2524 37.5906 21.8866 37.9148 23.5213 37.9148C25.1317 37.9148 26.7426 37.6 28.2771 36.9703C31.2013 35.7703 33.5441 33.5319 34.8745 30.6673C35.1835 30.0103 34.9011 29.2242 34.2438 28.9136ZM19.3927 15.3501C19.3916 15.3506 19.3904 15.3511 19.3892 15.3515C19.3902 15.3511 19.3918 15.3505 19.3927 15.3501ZM27.6557 35.4588C22.1066 37.7361 15.7378 35.0786 13.4584 29.5352C11.2807 24.2392 13.6117 18.1953 18.6671 15.679C17.6245 18.4069 17.6576 21.4591 18.7813 24.1731C19.9553 27.0087 22.1644 29.2177 25.0015 30.3934C27.5839 31.4634 30.4054 31.5607 33.0316 30.6853C31.8364 32.8371 29.9523 34.5164 27.6557 35.4588Z" fill="white"/>
<path d="M34.1807 13.5042H32.8286L34.7841 11.3684C35.0029 11.1295 35.0598 10.784 34.929 10.4876C34.7984 10.1913 34.5048 10 34.1807 10H30.9721C30.5205 10 30.1543 10.3658 30.1543 10.817C30.1543 11.2682 30.5205 11.634 30.9721 11.634H32.3242L30.3687 13.7698C30.1499 14.0087 30.093 14.3543 30.2238 14.6506C30.3544 14.947 30.648 15.1382 30.9722 15.1382H34.1807C34.6324 15.1382 34.9986 14.7724 34.9986 14.3212C34.9986 13.87 34.6323 13.5042 34.1807 13.5042Z" fill="white"/>
<path d="M24.1827 16.0814C24.3134 16.3778 24.607 16.5691 24.9312 16.5691H27.4956C27.9473 16.5691 28.3134 16.2033 28.3134 15.7521C28.3134 15.3009 27.9473 14.9351 27.4956 14.9351H26.7876L28.0991 13.5027C28.3179 13.2638 28.3748 12.9182 28.244 12.6219C28.1134 12.3255 27.8198 12.1343 27.4956 12.1343H24.9312C24.4795 12.1343 24.1133 12.5001 24.1133 12.9513C24.1133 13.4025 24.4795 13.7683 24.9312 13.7683H25.6392L24.3277 15.2007C24.1089 15.4396 24.052 15.7851 24.1827 16.0814Z" fill="white"/>
<path d="M29.4718 20.8886C29.6024 21.1849 29.896 21.3762 30.2202 21.3762H32.7847C33.2363 21.3762 33.6025 21.0104 33.6025 20.5592C33.6025 20.108 33.2363 19.7422 32.7847 19.7422H32.0767L33.3882 18.3098C33.607 18.0709 33.6638 17.7254 33.5331 17.429C33.4024 17.1327 33.1089 16.9414 32.7847 16.9414H30.2202C29.7686 16.9414 29.4024 17.3072 29.4024 17.7584C29.4024 18.2096 29.7686 18.5754 30.2202 18.5754H30.9282L29.6167 20.0078C29.3979 20.2467 29.3411 20.5922 29.4718 20.8886Z" fill="white"/>
</svg>
