<svg width="25" height="24" viewBox="0 0 25 24" fill="none" xmlns="http://www.w3.org/2000/svg">
<path d="M24.0382 3.28081C23.6742 2.92714 23.0836 2.92653 22.7196 3.27931L11.532 14.1019L7.49556 9.84973C7.14678 9.48251 6.55708 9.4587 6.17785 9.79695C5.79892 10.1352 5.77465 10.7075 6.12344 11.075L10.8173 16.0195C10.9892 16.2007 11.2298 16.3059 11.4835 16.311C11.4903 16.3113 11.4969 16.3113 11.5034 16.3113C11.7499 16.3113 11.9871 16.2163 12.1618 16.0475L24.0364 4.56007C24.4013 4.20734 24.4019 3.63448 24.0382 3.28081Z" fill="#252525"/>
<path d="M23.8113 11.0955C23.2962 11.0955 22.8788 11.5004 22.8788 12C22.8788 17.6195 18.1656 22.191 12.3719 22.191C6.57859 22.191 1.86512 17.6195 1.86512 12C1.86512 6.38081 6.57859 1.80905 12.3719 1.80905C12.887 1.80905 13.3045 1.40414 13.3045 0.904547C13.3045 0.404906 12.887 0 12.3719 0C5.54998 0 0 5.38312 0 12C0 18.6166 5.54998 24 12.3719 24C19.1936 24 24.7439 18.6166 24.7439 12C24.7439 11.5004 24.3264 11.0955 23.8113 11.0955Z" fill="#252525"/>
</svg>
