<svg width="48" height="48" viewBox="0 0 48 48" fill="none" xmlns="http://www.w3.org/2000/svg">
<circle cx="24" cy="24" r="24" fill="#5BB8C5"/>
<path d="M16.625 37H31.5C32.1962 37 32.8639 36.7234 33.3562 36.2312C33.8484 35.7389 34.125 35.0712 34.125 34.375V13.375C34.125 12.6788 33.8484 12.0111 33.3562 11.5188C32.8639 11.0266 32.1962 10.75 31.5 10.75H29.5969C29.4161 10.2387 29.0814 9.79593 28.6388 9.48256C28.1961 9.1692 27.6673 9.00062 27.125 9H21C20.4577 9.00062 19.9289 9.1692 19.4862 9.48256C19.0436 9.79593 18.7089 10.2387 18.5281 10.75H16.625C15.9288 10.75 15.2611 11.0266 14.7688 11.5188C14.2766 12.0111 14 12.6788 14 13.375V34.375C14 35.0712 14.2766 35.7389 14.7688 36.2312C15.2611 36.7234 15.9288 37 16.625 37ZM21 10.75H27.125C27.3571 10.75 27.5796 10.8422 27.7437 11.0063C27.9078 11.1704 28 11.3929 28 11.625C28 11.8571 27.9078 12.0796 27.7437 12.2437C27.5796 12.4078 27.3571 12.5 27.125 12.5H21C20.7679 12.5 20.5454 12.4078 20.3813 12.2437C20.2172 12.0796 20.125 11.8571 20.125 11.625C20.125 11.3929 20.2172 11.1704 20.3813 11.0063C20.5454 10.8422 20.7679 10.75 21 10.75ZM15.75 13.375C15.75 13.1429 15.8422 12.9204 16.0063 12.7563C16.1704 12.5922 16.3929 12.5 16.625 12.5H18.5281C18.7089 13.0113 19.0436 13.4541 19.4862 13.7674C19.9289 14.0808 20.4577 14.2494 21 14.25H27.125C27.6673 14.2494 28.1961 14.0808 28.6388 13.7674C29.0814 13.4541 29.4161 13.0113 29.5969 12.5H31.5C31.7321 12.5 31.9546 12.5922 32.1187 12.7563C32.2828 12.9204 32.375 13.1429 32.375 13.375V34.375C32.375 34.6071 32.2828 34.8296 32.1187 34.9937C31.9546 35.1578 31.7321 35.25 31.5 35.25H16.625C16.3929 35.25 16.1704 35.1578 16.0063 34.9937C15.8422 34.8296 15.75 34.6071 15.75 34.375V13.375Z" fill="white"/>
<path d="M21.874 28.8499C21.9579 28.9392 22.0598 29.01 22.1728 29.0574C22.2859 29.1049 22.4076 29.1281 22.5302 29.1255H22.574C22.7012 29.1188 22.8255 29.0845 22.9381 29.0248C23.0507 28.9651 23.1489 28.8815 23.2259 28.7799L30.2259 19.5924C30.3543 19.4072 30.4063 19.1796 30.3711 18.957C30.3358 18.7344 30.2161 18.5339 30.0367 18.3974C29.8574 18.261 29.6323 18.1989 29.4083 18.2243C29.1844 18.2497 28.9789 18.3605 28.8346 18.5336L22.4602 26.8986L19.8877 24.1511C19.7288 23.9817 19.509 23.8824 19.2768 23.875C19.0446 23.8676 18.819 23.9528 18.6496 24.1118C18.4802 24.2707 18.3809 24.4905 18.3735 24.7227C18.3661 24.9549 18.4513 25.1805 18.6102 25.3499L21.874 28.8499Z" fill="white"/>
</svg>
