<svg width="48" height="48" viewBox="0 0 48 48" fill="none" xmlns="http://www.w3.org/2000/svg">
<circle cx="24" cy="24" r="24" fill="#676CEF"/>
<path d="M14.3856 23.6097C14.3913 20.82 15.368 18.1193 17.148 15.9712C17.3518 15.7259 17.4499 15.4097 17.4206 15.0921C17.3914 14.7745 17.2371 14.4816 16.9918 14.2777C16.7466 14.0739 16.4304 13.9758 16.1128 14.0051C15.7952 14.0344 15.5023 14.1886 15.2984 14.4339C13.1663 17.0164 12 20.2608 12 23.6097C12 26.9586 13.1663 30.203 15.2984 32.7855C15.4113 32.9211 15.5527 33.0301 15.7126 33.1048C15.8724 33.1796 16.0468 33.2182 16.2232 33.2179C16.5038 33.2184 16.7758 33.1207 16.9918 32.9416C17.1135 32.8408 17.214 32.717 17.2877 32.5772C17.3614 32.4375 17.4068 32.2846 17.4213 32.1273C17.4358 31.97 17.4191 31.8114 17.3722 31.6605C17.3253 31.5097 17.2491 31.3696 17.148 31.2482C15.368 29.1001 14.3913 26.3994 14.3856 23.6097Z" fill="#676CEF"/>
<path d="M23.9919 26.0116C25.3185 26.0116 26.3939 24.9362 26.3939 23.6096C26.3939 22.283 25.3185 21.2075 23.9919 21.2075C22.6653 21.2075 21.5898 22.283 21.5898 23.6096C21.5898 24.9362 22.6653 26.0116 23.9919 26.0116Z" fill="#676CEF"/>
<path d="M30.0689 19.3822C29.9997 19.229 29.8991 19.0921 29.7737 18.9803C29.6482 18.8685 29.5007 18.7842 29.3407 18.733C29.1806 18.6817 29.0116 18.6647 28.8445 18.6828C28.6775 18.701 28.5161 18.754 28.3708 18.8385C28.2255 18.923 28.0996 19.037 28.0011 19.1732C27.9027 19.3094 27.8339 19.4647 27.7992 19.6292C27.7646 19.7936 27.7648 19.9635 27.8 20.1278C27.8351 20.2922 27.9043 20.4473 28.0031 20.5832C28.5302 21.4961 28.8077 22.5316 28.8077 23.5858C28.8077 24.6399 28.5302 25.6754 28.0031 26.5883C27.9203 26.7237 27.8652 26.8742 27.8409 27.0311C27.8166 27.1879 27.8237 27.3481 27.8616 27.5022C27.8996 27.6563 27.9677 27.8014 28.0621 27.929C28.1565 28.0566 28.2752 28.1643 28.4115 28.2457C28.6025 28.3527 28.8171 28.4104 29.036 28.4139C29.2433 28.4151 29.4474 28.3626 29.6284 28.2616C29.8093 28.1606 29.9611 28.0144 30.0689 27.8374C30.7998 26.557 31.1842 25.1081 31.1842 23.6338C31.1842 22.1595 30.7998 20.7106 30.0689 19.4302V19.3822Z" fill="#676CEF"/>
<path d="M19.5735 18.9742C19.4381 18.8914 19.2876 18.8363 19.1307 18.812C18.9739 18.7877 18.8138 18.7948 18.6596 18.8327C18.5055 18.8707 18.3604 18.9388 18.2328 19.0332C18.1052 19.1276 17.9975 19.2463 17.9161 19.3826C17.1852 20.663 16.8008 22.1118 16.8008 23.5862C16.8008 25.0605 17.1852 26.5093 17.9161 27.7897C18.0178 27.9757 18.167 28.1315 18.3484 28.2412C18.5298 28.3509 18.737 28.4106 18.949 28.4143C19.1679 28.4108 19.3825 28.3531 19.5735 28.2461C19.7097 28.1647 19.8285 28.057 19.9229 27.9294C20.0173 27.8018 20.0854 27.6567 20.1234 27.5026C20.1613 27.3485 20.1684 27.1884 20.1441 27.0315C20.1198 26.8746 20.0647 26.7241 19.9819 26.5887C19.4548 25.6758 19.1773 24.6403 19.1773 23.5862C19.1773 22.532 19.4548 21.4965 19.9819 20.5836C20.1341 20.3144 20.1766 19.9968 20.1006 19.697C20.0245 19.3972 19.8357 19.1383 19.5735 18.9742Z" fill="#676CEF"/>
<path d="M32.7021 14.4339C32.6012 14.3124 32.4773 14.2121 32.3376 14.1385C32.1979 14.0649 32.045 14.0196 31.8878 14.0051C31.5702 13.9758 31.254 14.0739 31.0087 14.2777C30.7634 14.4816 30.6092 14.7745 30.5799 15.0921C30.5506 15.4097 30.6487 15.7259 30.8526 15.9712C32.6252 18.122 33.5946 20.8225 33.5946 23.6097C33.5946 26.3969 32.6252 29.0973 30.8526 31.2482C30.7514 31.3696 30.6752 31.5097 30.6284 31.6605C30.5815 31.8114 30.5648 31.97 30.5793 32.1273C30.5938 32.2846 30.6392 32.4375 30.7129 32.5772C30.7866 32.717 30.8871 32.8408 31.0087 32.9416C31.2248 33.1207 31.4967 33.2184 31.7774 33.2179C31.9538 33.2182 32.1281 33.1796 32.288 33.1048C32.4478 33.0301 32.5892 32.9211 32.7021 32.7855C34.8343 30.203 36.0005 26.9586 36.0005 23.6097C36.0005 20.2608 34.8343 17.0164 32.7021 14.4339Z" fill="#676CEF"/>
<path d="M34.2161 21.8227C35.036 21.2465 35.5789 20.2881 35.5789 19.2078C35.5789 17.4404 34.1496 16.0111 32.3823 16.0111C30.615 16.0111 29.1856 17.4404 29.1856 19.2078C29.1856 20.2881 29.723 21.2465 30.5485 21.8227C29.8449 22.0665 29.2022 22.4432 28.6593 22.9307C27.9114 22.2936 27.0305 21.8061 26.0665 21.518C27.2355 20.8089 28.0222 19.518 28.0222 18.0499C28.0222 15.8116 26.2105 14 23.9723 14C21.7341 14 19.9224 15.8172 19.9224 18.0499C19.9224 19.518 20.7036 20.8089 21.8781 21.518C20.9252 21.8061 20.0554 22.2881 19.313 22.9141C18.7701 22.4377 18.1385 22.0665 17.446 21.8283C18.2659 21.2521 18.8089 20.2936 18.8089 19.2133C18.8089 17.446 17.3795 16.0166 15.6122 16.0166C13.8449 16.0166 12.4155 17.446 12.4155 19.2133C12.4155 20.2936 12.9529 21.2521 13.7784 21.8283C11.5789 22.5873 10 24.6759 10 27.1302V27.4958C10 27.5069 10.0111 27.518 10.0222 27.518H16.7978C16.759 27.8227 16.7368 28.1385 16.7368 28.4543V28.831C16.7368 30.4598 18.0554 31.7784 19.6842 31.7784H28.2715C29.9003 31.7784 31.2188 30.4598 31.2188 28.831V28.4543C31.2188 28.1385 31.1967 27.8227 31.1579 27.518H37.9778C37.9889 27.518 38 27.5069 38 27.4958V27.1302C37.9889 24.6704 36.4155 22.5817 34.2161 21.8227ZM30.072 19.2022C30.072 17.928 31.108 16.892 32.3823 16.892C33.6565 16.892 34.6925 17.928 34.6925 19.2022C34.6925 20.4598 33.6787 21.4848 32.4266 21.5125C32.41 21.5125 32.3989 21.5125 32.3823 21.5125C32.3657 21.5125 32.3546 21.5125 32.338 21.5125C31.0803 21.4903 30.072 20.4654 30.072 19.2022ZM20.7978 18.0499C20.7978 16.3047 22.2161 14.8864 23.9612 14.8864C25.7064 14.8864 27.1247 16.3047 27.1247 18.0499C27.1247 19.7341 25.8006 21.1136 24.144 21.2078C24.0831 21.2078 24.0222 21.2078 23.9612 21.2078C23.9003 21.2078 23.8393 21.2078 23.7784 21.2078C22.1219 21.1136 20.7978 19.7341 20.7978 18.0499ZM13.2853 19.2022C13.2853 17.928 14.3213 16.892 15.5956 16.892C16.8698 16.892 17.9058 17.928 17.9058 19.2022C17.9058 20.4598 16.892 21.4848 15.6399 21.5125C15.6233 21.5125 15.6122 21.5125 15.5956 21.5125C15.5789 21.5125 15.5679 21.5125 15.5512 21.5125C14.2992 21.4903 13.2853 20.4654 13.2853 19.2022ZM16.9529 26.626H10.8975C11.1468 24.2659 13.1413 22.4155 15.5623 22.3989C15.5734 22.3989 15.5845 22.3989 15.5956 22.3989C15.6066 22.3989 15.6177 22.3989 15.6288 22.3989C16.7812 22.4044 17.8338 22.831 18.6482 23.5235C17.8504 24.3878 17.2576 25.4515 16.9529 26.626ZM30.3213 28.831C30.3213 29.9668 29.3961 30.892 28.2604 30.892H19.6731C18.5374 30.892 17.6122 29.9668 17.6122 28.831V28.4543C17.6122 25.0139 20.3601 22.1994 23.7784 22.0997C23.8393 22.1053 23.9058 22.1053 23.9668 22.1053C24.0277 22.1053 24.0942 22.1053 24.1551 22.0997C27.5734 22.1994 30.3213 25.0139 30.3213 28.4543V28.831ZM30.9806 26.626C30.6759 25.4571 30.0942 24.41 29.3019 23.5457C30.1219 22.8366 31.1856 22.41 32.349 22.3989C32.3601 22.3989 32.3712 22.3989 32.3823 22.3989C32.3934 22.3989 32.4044 22.3989 32.4155 22.3989C34.8366 22.4155 36.831 24.2659 37.0803 26.626H30.9806Z" fill="white"/>
</svg>
