<svg width="48" height="48" viewBox="0 0 48 48" fill="none" xmlns="http://www.w3.org/2000/svg">
<path d="M19.0004 17.2084C18.5646 17.2084 18.2109 16.8584 18.2109 16.4271V12.7813C18.2109 12.35 18.5646 12 19.0004 12C19.4362 12 19.7899 12.35 19.7899 12.7813V16.4271C19.7899 16.8584 19.4362 17.2084 19.0004 17.2084Z" fill="white"/>
<path d="M24.2641 17.2084C23.8283 17.2084 23.4746 16.8584 23.4746 16.4271V12.7813C23.4746 12.35 23.8283 12 24.2641 12C24.6999 12 25.0536 12.35 25.0536 12.7813V16.4271C25.0536 16.8584 24.6999 17.2084 24.2641 17.2084Z" fill="white"/>
<path d="M29.0004 17.2084C28.5646 17.2084 28.2109 16.8584 28.2109 16.4271V12.7813C28.2109 12.35 28.5646 12 29.0004 12C29.4362 12 29.7899 12.35 29.7899 12.7813V16.4271C29.7899 16.8584 29.4362 17.2084 29.0004 17.2084Z" fill="white"/>
<circle cx="24" cy="24" r="24" fill="#5BB8C5"/>
<path d="M30.3368 35.4894H18.1493C17.1517 35.4894 16.3438 34.6814 16.3438 33.6838V18.788C16.3438 17.7904 17.1517 16.9824 18.1493 16.9824H30.3368C31.3344 16.9824 32.1424 17.7904 32.1424 18.788V33.6838C32.1424 34.6814 31.3344 35.4894 30.3368 35.4894Z" fill="#5BB8C5"/>
<path d="M30.053 31.271H19.0004C18.5646 31.271 18.2109 30.921 18.2109 30.4898C18.2109 30.0585 18.5646 29.7085 19.0004 29.7085H30.053C30.4888 29.7085 30.8425 30.0585 30.8425 30.4898C30.8425 30.921 30.4888 31.271 30.053 31.271Z" fill="white"/>
<path d="M30.053 27.1045H19.0004C18.5646 27.1045 18.2109 26.7545 18.2109 26.3232C18.2109 25.892 18.5646 25.542 19.0004 25.542H30.053C30.4888 25.542 30.8425 25.892 30.8425 26.3232C30.8425 26.7545 30.4888 27.1045 30.053 27.1045Z" fill="white"/>
<path d="M24.7899 22.938H19.0004C18.5646 22.938 18.2109 22.588 18.2109 22.1567C18.2109 21.7255 18.5646 21.3755 19.0004 21.3755H24.7899C25.2257 21.3755 25.5794 21.7255 25.5794 22.1567C25.5794 22.588 25.2257 22.938 24.7899 22.938Z" fill="white"/>
<path d="M31.1053 37.0003H16.8947C15.2979 37.0003 14 35.7159 14 34.1357V16.9481C14 15.3679 15.2979 14.0835 16.8947 14.0835H31.1053C32.7021 14.0835 34 15.3679 34 16.9481V34.1357C34 35.7159 32.7021 37.0003 31.1053 37.0003ZM16.8947 15.646C16.1695 15.646 15.5789 16.2304 15.5789 16.9481V34.1357C15.5789 34.8534 16.1695 35.4378 16.8947 35.4378H31.1053C31.8305 35.4378 32.4211 34.8534 32.4211 34.1357V16.9481C32.4211 16.2304 31.8305 15.646 31.1053 15.646H16.8947Z" fill="white"/>
</svg>
