<svg width="23" height="22" viewBox="0 0 23 22" fill="none" xmlns="http://www.w3.org/2000/svg">
<path d="M19.668 0H3.66797C2.01111 0 0.667969 1.34315 0.667969 3V19C0.667969 20.6569 2.01111 22 3.66797 22H19.668C21.3248 22 22.668 20.6569 22.668 19V3C22.668 1.34315 21.3248 0 19.668 0Z" fill="#0077B5"/>
<path d="M8.5918 6C8.5918 6.37084 8.48183 6.73335 8.2758 7.04169C8.06978 7.35004 7.77694 7.59036 7.43433 7.73227C7.09172 7.87419 6.71472 7.91132 6.351 7.83897C5.98729 7.76663 5.6532 7.58805 5.39097 7.32582C5.12875 7.0636 4.95017 6.72951 4.87783 6.36579C4.80548 6.00208 4.84261 5.62508 4.98452 5.28247C5.12644 4.93986 5.36676 4.64702 5.6751 4.44099C5.98345 4.23497 6.34596 4.125 6.7168 4.125C7.21408 4.125 7.69099 4.32254 8.04262 4.67417C8.39425 5.02581 8.5918 5.50272 8.5918 6Z" fill="white"/>
<path d="M8.16477 9.12491V17.4087C8.1651 17.4698 8.15335 17.5303 8.13019 17.5869C8.10703 17.6435 8.07292 17.6949 8.02983 17.7382C7.98673 17.7815 7.93549 17.8159 7.87907 17.8394C7.82264 17.8628 7.76213 17.8749 7.70102 17.8749H5.72477C5.66366 17.8751 5.60312 17.8632 5.54662 17.8399C5.49013 17.8165 5.43881 17.7823 5.39559 17.7391C5.35238 17.6959 5.31814 17.6445 5.29483 17.5881C5.27152 17.5316 5.2596 17.471 5.25977 17.4099V9.12491C5.25977 9.00159 5.30876 8.88331 5.39596 8.79611C5.48317 8.7089 5.60144 8.65991 5.72477 8.65991H7.70102C7.82413 8.66024 7.94208 8.70938 8.02901 8.79655C8.11595 8.88372 8.16477 9.0018 8.16477 9.12491Z" fill="white"/>
<path d="M18.4978 13.4375V17.4475C18.498 17.5036 18.487 17.5593 18.4656 17.6113C18.4442 17.6632 18.4127 17.7104 18.373 17.7501C18.3332 17.7898 18.286 17.8213 18.2341 17.8428C18.1822 17.8642 18.1265 17.8751 18.0703 17.875H15.9453C15.8891 17.8751 15.8335 17.8642 15.7815 17.8428C15.7296 17.8213 15.6824 17.7898 15.6427 17.7501C15.6029 17.7104 15.5714 17.6632 15.55 17.6113C15.5286 17.5593 15.5176 17.5036 15.5178 17.4475V13.5612C15.5178 12.9812 15.6878 11.0212 14.0016 11.0212C12.6953 11.0212 12.4291 12.3625 12.3766 12.965V17.4475C12.3766 17.5598 12.3324 17.6676 12.2536 17.7476C12.1747 17.8276 12.0676 17.8733 11.9553 17.875H9.90281C9.84673 17.875 9.7912 17.8639 9.73941 17.8424C9.68761 17.8209 9.64056 17.7894 9.60097 17.7497C9.56137 17.71 9.53 17.6628 9.50865 17.611C9.4873 17.5591 9.4764 17.5035 9.47656 17.4475V9.08871C9.4764 9.03263 9.4873 8.97707 9.50865 8.92521C9.53 8.87335 9.56137 8.82621 9.60097 8.7865C9.64056 8.74678 9.68761 8.71528 9.73941 8.69378C9.7912 8.67228 9.84673 8.66121 9.90281 8.66121H11.9553C12.0687 8.66121 12.1774 8.70625 12.2576 8.78642C12.3378 8.86659 12.3828 8.97533 12.3828 9.08871V9.81121C12.8678 9.08371 13.5866 8.52246 15.1203 8.52246C18.5178 8.52246 18.4978 11.695 18.4978 13.4375Z" fill="white"/>
</svg>
