<svg width="48" height="48" viewBox="0 0 48 48" fill="none" xmlns="http://www.w3.org/2000/svg">
<circle cx="24" cy="24" r="24" fill="#676CEF"/>
<path d="M14.3856 23.6097C14.3913 20.82 15.368 18.1193 17.148 15.9712C17.3518 15.7259 17.4499 15.4097 17.4206 15.0921C17.3914 14.7745 17.2371 14.4816 16.9918 14.2777C16.7466 14.0739 16.4304 13.9758 16.1128 14.0051C15.7952 14.0344 15.5023 14.1886 15.2984 14.4339C13.1663 17.0164 12 20.2608 12 23.6097C12 26.9586 13.1663 30.203 15.2984 32.7855C15.4113 32.9211 15.5527 33.0301 15.7126 33.1048C15.8724 33.1796 16.0468 33.2182 16.2232 33.2179C16.5038 33.2184 16.7758 33.1207 16.9918 32.9416C17.1135 32.8408 17.214 32.717 17.2877 32.5772C17.3614 32.4375 17.4068 32.2846 17.4213 32.1273C17.4358 31.97 17.4191 31.8114 17.3722 31.6605C17.3253 31.5097 17.2491 31.3696 17.148 31.2482C15.368 29.1001 14.3913 26.3994 14.3856 23.6097Z" fill="#676CEF"/>
<path d="M23.9919 26.0111C25.3185 26.0111 26.3939 24.9357 26.3939 23.6091C26.3939 22.2825 25.3185 21.207 23.9919 21.207C22.6653 21.207 21.5898 22.2825 21.5898 23.6091C21.5898 24.9357 22.6653 26.0111 23.9919 26.0111Z" fill="#676CEF"/>
<path d="M30.0689 19.3822C29.9997 19.229 29.8991 19.0921 29.7737 18.9803C29.6482 18.8685 29.5007 18.7842 29.3407 18.733C29.1806 18.6817 29.0116 18.6647 28.8445 18.6828C28.6775 18.701 28.5161 18.754 28.3708 18.8385C28.2255 18.923 28.0996 19.037 28.0011 19.1732C27.9027 19.3094 27.8339 19.4647 27.7992 19.6292C27.7646 19.7936 27.7648 19.9635 27.8 20.1278C27.8351 20.2922 27.9043 20.4473 28.0031 20.5832C28.5302 21.4961 28.8077 22.5316 28.8077 23.5858C28.8077 24.6399 28.5302 25.6754 28.0031 26.5883C27.9203 26.7237 27.8652 26.8742 27.8409 27.0311C27.8166 27.1879 27.8237 27.3481 27.8616 27.5022C27.8996 27.6563 27.9677 27.8014 28.0621 27.929C28.1565 28.0566 28.2752 28.1643 28.4115 28.2457C28.6025 28.3527 28.8171 28.4104 29.036 28.4139C29.2433 28.4151 29.4474 28.3626 29.6284 28.2616C29.8093 28.1606 29.9611 28.0144 30.0689 27.8374C30.7998 26.557 31.1842 25.1081 31.1842 23.6338C31.1842 22.1595 30.7998 20.7106 30.0689 19.4302V19.3822Z" fill="#676CEF"/>
<path d="M19.5735 18.9742C19.4381 18.8914 19.2876 18.8363 19.1307 18.812C18.9739 18.7877 18.8138 18.7948 18.6596 18.8327C18.5055 18.8707 18.3604 18.9388 18.2328 19.0332C18.1052 19.1276 17.9975 19.2463 17.9161 19.3826C17.1852 20.663 16.8008 22.1118 16.8008 23.5862C16.8008 25.0605 17.1852 26.5093 17.9161 27.7897C18.0178 27.9757 18.167 28.1315 18.3484 28.2412C18.5298 28.3509 18.737 28.4106 18.949 28.4143C19.1679 28.4108 19.3825 28.3531 19.5735 28.2461C19.7097 28.1647 19.8285 28.057 19.9229 27.9294C20.0173 27.8018 20.0854 27.6567 20.1234 27.5026C20.1613 27.3485 20.1684 27.1884 20.1441 27.0315C20.1198 26.8746 20.0647 26.7241 19.9819 26.5887C19.4548 25.6758 19.1773 24.6403 19.1773 23.5862C19.1773 22.532 19.4548 21.4965 19.9819 20.5836C20.1341 20.3144 20.1766 19.9968 20.1006 19.697C20.0245 19.3972 19.8357 19.1383 19.5735 18.9742Z" fill="#676CEF"/>
<path d="M32.7021 14.4339C32.6012 14.3124 32.4773 14.2121 32.3376 14.1385C32.1979 14.0649 32.045 14.0196 31.8878 14.0051C31.5702 13.9758 31.254 14.0739 31.0087 14.2777C30.7634 14.4816 30.6092 14.7745 30.5799 15.0921C30.5506 15.4097 30.6487 15.7259 30.8526 15.9712C32.6252 18.122 33.5946 20.8225 33.5946 23.6097C33.5946 26.3969 32.6252 29.0973 30.8526 31.2482C30.7514 31.3696 30.6752 31.5097 30.6284 31.6605C30.5815 31.8114 30.5648 31.97 30.5793 32.1273C30.5938 32.2846 30.6392 32.4375 30.7129 32.5772C30.7866 32.717 30.8871 32.8408 31.0087 32.9416C31.2248 33.1207 31.4967 33.2184 31.7774 33.2179C31.9538 33.2182 32.1281 33.1796 32.288 33.1048C32.4478 33.0301 32.5892 32.9211 32.7021 32.7855C34.8343 30.203 36.0005 26.9586 36.0005 23.6097C36.0005 20.2608 34.8343 17.0164 32.7021 14.4339Z" fill="#676CEF"/>
<path d="M35.1628 14H12.8372C12.6152 14 12.4022 14.0882 12.2452 14.2452C12.0882 14.4022 12 14.6152 12 14.8372V18.186C12 18.4081 12.0882 18.621 12.2452 18.778C12.4022 18.9351 12.6152 19.0233 12.8372 19.0233H13.1163V30.4651C13.1163 30.6872 13.2045 30.9001 13.3615 31.0571C13.5185 31.2141 13.7314 31.3023 13.9535 31.3023H23.1628V34.2471C22.6042 34.4446 22.1334 34.8332 21.8336 35.3442C21.5338 35.8553 21.4244 36.4558 21.5245 37.0398C21.6247 37.6237 21.9281 38.1535 22.3811 38.5353C22.8341 38.9172 23.4075 39.1267 24 39.1267C24.5925 39.1267 25.1659 38.9172 25.6189 38.5353C26.0719 38.1535 26.3753 37.6237 26.4755 37.0398C26.5756 36.4558 26.4662 35.8553 26.1664 35.3442C25.8666 34.8332 25.3958 34.4446 24.8372 34.2471V31.3023H34.0465C34.2686 31.3023 34.4815 31.2141 34.6385 31.0571C34.7955 30.9001 34.8837 30.6872 34.8837 30.4651V19.0233H35.1628C35.3848 19.0233 35.5978 18.9351 35.7548 18.778C35.9118 18.621 36 18.4081 36 18.186V14.8372C36 14.6152 35.9118 14.4022 35.7548 14.2452C35.5978 14.0882 35.3848 14 35.1628 14ZM24 37.4419C23.8344 37.4419 23.6726 37.3928 23.5349 37.3008C23.3972 37.2088 23.2899 37.078 23.2265 36.925C23.1632 36.7721 23.1466 36.6037 23.1789 36.4413C23.2112 36.2789 23.2909 36.1297 23.408 36.0127C23.5251 35.8956 23.6743 35.8158 23.8367 35.7835C23.9991 35.7512 24.1674 35.7678 24.3204 35.8312C24.4734 35.8945 24.6041 36.0018 24.6961 36.1395C24.7881 36.2772 24.8372 36.4391 24.8372 36.6047C24.8369 36.8266 24.7486 37.0394 24.5917 37.1963C24.4347 37.3533 24.222 37.4416 24 37.4419ZM13.6744 15.6744H34.3256V17.3488H13.6744V15.6744ZM33.2093 29.6279H14.7907V19.0233H33.2093V29.6279Z" fill="white"/>
<path d="M17.3021 23.4879H22.8834C23.1055 23.4879 23.3184 23.3997 23.4754 23.2427C23.6325 23.0857 23.7207 22.8727 23.7207 22.6507C23.7207 22.4286 23.6325 22.2157 23.4754 22.0587C23.3184 21.9017 23.1055 21.8135 22.8834 21.8135H17.3021C17.08 21.8135 16.8671 21.9017 16.7101 22.0587C16.553 22.2157 16.4648 22.4286 16.4648 22.6507C16.4648 22.8727 16.553 23.0857 16.7101 23.2427C16.8671 23.3997 17.08 23.4879 17.3021 23.4879Z" fill="white"/>
<path d="M17.3021 26.8375H30.6974C30.9194 26.8375 31.1324 26.7493 31.2894 26.5923C31.4464 26.4353 31.5346 26.2223 31.5346 26.0003C31.5346 25.7783 31.4464 25.5653 31.2894 25.4083C31.1324 25.2513 30.9194 25.1631 30.6974 25.1631H17.3021C17.08 25.1631 16.8671 25.2513 16.7101 25.4083C16.553 25.5653 16.4648 25.7783 16.4648 26.0003C16.4648 26.2223 16.553 26.4353 16.7101 26.5923C16.8671 26.7493 17.08 26.8375 17.3021 26.8375Z" fill="white"/>
</svg>
