<svg width="48" height="48" viewBox="0 0 48 48" fill="none" xmlns="http://www.w3.org/2000/svg">
<circle cx="24" cy="24" r="24" fill="#5BB8C5"/>
<path d="M35.1628 14H12.8372C12.6152 14 12.4022 14.0882 12.2452 14.2452C12.0882 14.4022 12 14.6152 12 14.8372V18.186C12 18.4081 12.0882 18.621 12.2452 18.778C12.4022 18.9351 12.6152 19.0233 12.8372 19.0233H13.1163V30.4651C13.1163 30.6872 13.2045 30.9001 13.3615 31.0571C13.5185 31.2141 13.7314 31.3023 13.9535 31.3023H23.1628V34.2471C22.6042 34.4446 22.1334 34.8332 21.8336 35.3442C21.5338 35.8553 21.4244 36.4558 21.5245 37.0398C21.6247 37.6237 21.9281 38.1535 22.3811 38.5353C22.8341 38.9172 23.4075 39.1267 24 39.1267C24.5925 39.1267 25.1659 38.9172 25.6189 38.5353C26.0719 38.1535 26.3753 37.6237 26.4755 37.0398C26.5756 36.4558 26.4662 35.8553 26.1664 35.3442C25.8666 34.8332 25.3958 34.4446 24.8372 34.2471V31.3023H34.0465C34.2686 31.3023 34.4815 31.2141 34.6385 31.0571C34.7955 30.9001 34.8837 30.6872 34.8837 30.4651V19.0233H35.1628C35.3848 19.0233 35.5978 18.9351 35.7548 18.778C35.9118 18.621 36 18.4081 36 18.186V14.8372C36 14.6152 35.9118 14.4022 35.7548 14.2452C35.5978 14.0882 35.3848 14 35.1628 14ZM24 37.4419C23.8344 37.4419 23.6726 37.3928 23.5349 37.3008C23.3972 37.2088 23.2899 37.078 23.2265 36.925C23.1632 36.7721 23.1466 36.6037 23.1789 36.4413C23.2112 36.2789 23.2909 36.1297 23.408 36.0127C23.5251 35.8956 23.6743 35.8158 23.8367 35.7835C23.9991 35.7512 24.1674 35.7678 24.3204 35.8312C24.4734 35.8945 24.6041 36.0018 24.6961 36.1395C24.7881 36.2772 24.8372 36.4391 24.8372 36.6047C24.8369 36.8266 24.7486 37.0394 24.5917 37.1963C24.4347 37.3533 24.222 37.4416 24 37.4419ZM13.6744 15.6744H34.3256V17.3488H13.6744V15.6744ZM33.2093 29.6279H14.7907V19.0233H33.2093V29.6279Z" fill="white"/>
<path d="M17.3021 23.4884H22.8834C23.1055 23.4884 23.3184 23.4002 23.4754 23.2432C23.6325 23.0862 23.7207 22.8732 23.7207 22.6512C23.7207 22.4291 23.6325 22.2162 23.4754 22.0592C23.3184 21.9022 23.1055 21.814 22.8834 21.814H17.3021C17.08 21.814 16.8671 21.9022 16.7101 22.0592C16.553 22.2162 16.4648 22.4291 16.4648 22.6512C16.4648 22.8732 16.553 23.0862 16.7101 23.2432C16.8671 23.4002 17.08 23.4884 17.3021 23.4884Z" fill="white"/>
<path d="M17.3021 26.837H30.6974C30.9194 26.837 31.1324 26.7488 31.2894 26.5918C31.4464 26.4348 31.5346 26.2218 31.5346 25.9998C31.5346 25.7778 31.4464 25.5648 31.2894 25.4078C31.1324 25.2508 30.9194 25.1626 30.6974 25.1626H17.3021C17.08 25.1626 16.8671 25.2508 16.7101 25.4078C16.553 25.5648 16.4648 25.7778 16.4648 25.9998C16.4648 26.2218 16.553 26.4348 16.7101 26.5918C16.8671 26.7488 17.08 26.837 17.3021 26.837Z" fill="white"/>
</svg>
