<svg width="48" height="48" viewBox="0 0 48 48" fill="none" xmlns="http://www.w3.org/2000/svg">
<circle cx="24" cy="24" r="24" fill="#FF6363"/>
<path d="M27.3784 24.7322L29.888 25.22C29.9762 26.6012 31.1909 27.6508 32.6012 27.5644C34.0114 27.4781 35.0831 26.2884 34.9949 24.9072C34.9068 23.526 33.692 22.4765 32.2818 22.5628C31.3675 22.6188 30.5536 23.1492 30.1478 23.9536L27.5508 23.4488C27.5226 22.4854 27.142 21.5639 26.4782 20.8523L29.9791 16.0089C31.6002 16.6974 33.4843 15.9686 34.1873 14.3809C34.8903 12.7933 34.1462 10.948 32.5251 10.2595C30.9041 9.57097 29.0199 10.2998 28.3169 11.8874C27.8125 13.0266 28.0424 14.3499 28.9031 15.2616L25.4438 20.0476C23.7888 19.138 21.713 19.4562 20.421 20.8177L15.8878 17.3698C16.4864 16.113 15.9313 14.6191 14.6481 14.0329C13.3649 13.4467 11.8395 13.9903 11.2409 15.247C10.6424 16.5038 11.1975 17.9978 12.4806 18.584C13.3131 18.9643 14.2898 18.8793 15.0408 18.3612L19.6849 21.8933C18.9389 23.4892 19.3339 25.3744 20.6615 26.5533L17.8796 30.4064C16.2373 29.5097 14.1637 30.0866 13.2482 31.695C12.3326 33.3035 12.9217 35.3343 14.5639 36.231C16.2062 37.1277 18.2798 36.5508 19.1953 34.9423C19.8666 33.7631 19.7456 32.3037 18.8886 31.2461L21.7672 27.2587C22.7702 27.6944 23.9096 27.719 24.9312 27.3268L28.3724 32.3055C27.3201 33.4793 27.4387 35.2664 28.6372 36.297C29.8357 37.3276 31.6604 37.2115 32.7127 36.0377C33.765 34.8639 33.6465 33.0768 32.448 32.0462C31.6239 31.3375 30.461 31.1472 29.4464 31.5549L26.0686 26.6679C26.6889 26.1618 27.1443 25.4889 27.3784 24.7322ZM32.4403 23.8497C33.1244 23.8497 33.679 24.3929 33.679 25.0629C33.679 25.733 33.1244 26.2762 32.4403 26.2762C31.7561 26.2762 31.2015 25.733 31.2015 25.0629C31.2021 24.3931 31.7564 23.8502 32.4403 23.8497ZM31.2435 11.307C32.2772 11.3071 33.1152 12.1278 33.1151 13.1402C33.115 14.1526 32.277 14.9733 31.2433 14.9732C30.2096 14.9732 29.3717 14.1525 29.3717 13.1401C29.3729 12.1281 30.2102 11.3081 31.2435 11.307ZM13.569 17.5272C12.8852 17.5264 12.331 16.9836 12.3302 16.3139C12.3302 15.6439 12.8849 15.1007 13.569 15.1007C14.2532 15.1007 14.8078 15.6439 14.8078 16.3139C14.8078 16.984 14.2532 17.5272 13.569 17.5272ZM16.2303 35.3447C15.0836 35.3446 14.154 34.4342 14.1541 33.3111C14.1542 32.1881 15.0837 31.2777 16.2305 31.2777C17.3771 31.2778 18.3067 32.1882 18.3067 33.3112C18.3054 34.4338 17.3765 35.3434 16.2303 35.3447ZM30.542 32.6352C31.4108 32.6362 32.1149 33.3257 32.1158 34.1766C32.1158 35.0279 31.4112 35.7179 30.542 35.7179C29.6728 35.7179 28.9682 35.0279 28.9682 34.1766C28.9682 33.3253 29.6729 32.6352 30.542 32.6352ZM23.4326 26.3126C21.8857 26.3109 20.6322 25.0832 20.6305 23.5683C20.6305 22.0526 21.885 20.8239 23.4326 20.8239C24.9801 20.8239 26.2347 22.0526 26.2347 23.5683C26.2347 25.0839 24.9801 26.3126 23.4326 26.3126Z" fill="white"/>
</svg>
