<svg width="48" height="48" viewBox="0 0 48 48" fill="none" xmlns="http://www.w3.org/2000/svg">
<circle cx="24" cy="24" r="24" fill="#FF6363"/>
<path d="M35.9753 27.9942C35.579 25.8068 34.0981 24.0504 32.1453 23.2358C33.0119 22.5234 33.5654 21.4448 33.5654 20.2398C33.5654 18.0995 31.8201 16.3582 29.6746 16.3582C27.5292 16.3582 25.7838 18.0993 25.7838 20.2398C25.7838 21.4455 26.3379 22.5245 27.2054 23.237C26.8817 23.3724 26.5681 23.5339 26.2685 23.7221C25.5136 24.1967 24.869 24.8216 24.3723 25.5535C23.8667 25.2244 23.3231 24.9505 22.75 24.7403C23.9817 23.8675 24.787 22.4324 24.787 20.813C24.787 18.1591 22.6243 16 19.966 16C17.3077 16 15.145 18.1591 15.145 20.813C15.145 22.4324 15.9503 23.8675 17.1821 24.7403C14.5608 25.7016 12.5503 27.9876 12.0288 30.8657C11.9325 31.3978 12.0804 31.9406 12.4344 32.3548C12.785 32.7649 13.2966 33 13.838 33H26.094C26.6354 33 27.147 32.7649 27.4977 32.3548C27.8518 31.9406 27.9996 31.3978 27.9033 30.8657C27.839 30.5107 27.7518 30.1648 27.644 29.8294H34.4181C34.8843 29.8294 35.3249 29.6269 35.6266 29.2741C35.931 28.9182 36.058 28.4515 35.9753 27.9942ZM27.1901 20.2398C27.1901 18.8594 28.3046 17.7366 29.6746 17.7366C31.0446 17.7366 32.1592 18.8594 32.1592 20.2398C32.1592 21.6199 31.0446 22.7427 29.6746 22.7427C28.3046 22.7427 27.1901 21.6199 27.1901 20.2398ZM16.5513 20.813C16.5513 18.9192 18.0832 17.3784 19.966 17.3784C21.8489 17.3784 23.3809 18.9192 23.3809 20.813C23.3809 22.7069 21.8489 24.2477 19.966 24.2477C18.0832 24.2477 16.5513 22.7069 16.5513 20.813ZM26.4199 31.4694C26.3712 31.5263 26.2643 31.6216 26.094 31.6216H13.838C13.6678 31.6216 13.5608 31.5263 13.5121 31.4694C13.4616 31.4102 13.3814 31.2842 13.4134 31.1065C13.9887 27.931 16.7445 25.626 19.966 25.626C23.1876 25.626 25.9435 27.931 26.5186 31.1065C26.5508 31.2842 26.4706 31.4102 26.4199 31.4694ZM34.5489 28.3887C34.5289 28.412 34.4855 28.451 34.4183 28.451H27.0529C26.6369 27.687 26.1026 27.0015 25.4758 26.4168C26.3917 24.9887 27.9571 24.1211 29.6746 24.1211C32.0914 24.1211 34.1587 25.8513 34.5906 28.2353C34.6042 28.3105 34.5703 28.3638 34.5489 28.3887Z" fill="white"/>
</svg>
