<svg width="48" height="48" viewBox="0 0 48 48" fill="none" xmlns="http://www.w3.org/2000/svg">
<circle cx="24" cy="24" r="24" fill="#FF6363"/>
<path d="M30.2168 35.0213C29.9013 35.0215 29.5905 34.9445 29.3116 34.7969L24.1306 32.0738C24.0904 32.0523 24.0456 32.0411 24.0001 32.0411C23.9545 32.0411 23.9097 32.0523 23.8696 32.0738L18.6893 34.7969C18.3683 34.9658 18.0064 35.0415 17.6446 35.0154C17.2828 34.9894 16.9355 34.8626 16.642 34.6493C16.3485 34.4361 16.1206 34.145 15.984 33.809C15.8474 33.473 15.8075 33.1054 15.8689 32.7479L16.8581 26.98C16.8657 26.9348 16.8621 26.8884 16.8476 26.8449C16.8331 26.8015 16.8082 26.7622 16.775 26.7306L12.5872 22.6434C12.3272 22.3901 12.1434 22.069 12.0565 21.7166C11.9696 21.3641 11.9832 20.9944 12.0956 20.6492C12.2081 20.3041 12.415 19.9974 12.6929 19.7638C12.9708 19.5302 13.3085 19.3791 13.6678 19.3276L19.4557 18.4873C19.5008 18.4807 19.5435 18.4633 19.5803 18.4365C19.6171 18.4097 19.6468 18.3743 19.6668 18.3335L22.2545 13.0843C22.4148 12.7589 22.6629 12.4848 22.9709 12.2932C23.2789 12.1016 23.6344 12 23.9972 12C24.3599 12 24.7154 12.1016 25.0234 12.2932C25.3314 12.4848 25.5796 12.7589 25.7398 13.0843L28.3291 18.3318C28.3493 18.3726 28.3791 18.4078 28.4159 18.4346C28.4526 18.4613 28.4953 18.4789 28.5403 18.4856L34.3331 19.3268C34.6923 19.3786 35.0298 19.5298 35.3075 19.7634C35.5851 19.9971 35.7919 20.3037 35.9043 20.6487C36.0167 20.9938 36.0304 21.3634 35.9437 21.7157C35.857 22.0681 35.6734 22.3892 35.4137 22.6426L31.2218 26.7273C31.1887 26.759 31.1639 26.7982 31.1494 26.8417C31.1349 26.8851 31.1312 26.9315 31.1387 26.9766L32.1279 32.7446C32.1754 33.0233 32.1617 33.309 32.0877 33.5818C32.0136 33.8547 31.881 34.1081 31.699 34.3245C31.517 34.5409 31.2901 34.715 31.034 34.8348C30.7779 34.9546 30.4987 35.0171 30.216 35.018L30.2168 35.0213ZM24.0001 30.378C24.3153 30.378 24.6258 30.455 24.9044 30.6025L30.0847 33.3248C30.1305 33.351 30.1831 33.363 30.2358 33.3593C30.2885 33.3556 30.3389 33.3363 30.3806 33.304C30.4242 33.2741 30.458 33.2321 30.4779 33.1832C30.4979 33.1343 30.5031 33.0807 30.4928 33.0288L29.5028 27.2601C29.4499 26.9496 29.4731 26.631 29.5704 26.3314C29.6677 26.0319 29.8362 25.7604 30.0614 25.5403L34.2533 21.4548C34.2907 21.4181 34.3172 21.3717 34.3296 21.3209C34.3421 21.27 34.3401 21.2167 34.3238 21.1669C34.3076 21.1171 34.2777 21.0728 34.2377 21.0391C34.1976 21.0053 34.1489 20.9835 34.097 20.976L28.305 20.1339C27.9932 20.0888 27.697 19.9684 27.4421 19.7832C27.1873 19.5979 26.9813 19.3534 26.842 19.0708L24.2494 13.8224C24.2262 13.7754 24.1903 13.7359 24.1458 13.7082C24.1013 13.6806 24.05 13.6659 23.9976 13.6659C23.9452 13.6659 23.8938 13.6806 23.8493 13.7082C23.8048 13.7359 23.7689 13.7754 23.7457 13.8224L21.1581 19.0691C21.0188 19.3519 20.8127 19.5965 20.5576 19.7817C20.3026 19.9669 20.0063 20.0873 19.6943 20.1323L13.9031 20.976C13.8511 20.9833 13.8023 21.0051 13.7621 21.0389C13.722 21.0726 13.6921 21.1169 13.6759 21.1668C13.6597 21.2167 13.6578 21.2702 13.6705 21.3211C13.6832 21.372 13.7099 21.4183 13.7476 21.4548L17.9387 25.5403C18.1639 25.7604 18.3324 26.0319 18.4297 26.3314C18.527 26.631 18.5502 26.9496 18.4973 27.2601L17.5073 33.0288C17.4983 33.0807 17.5041 33.134 17.5239 33.1827C17.5437 33.2314 17.5768 33.2736 17.6194 33.3044C17.6621 33.3353 17.7125 33.3535 17.7649 33.3571C17.8174 33.3607 17.8699 33.3495 17.9163 33.3248L23.0957 30.6017C23.3745 30.4548 23.6849 30.3781 24.0001 30.378Z" fill="white"/>
</svg>
