<svg width="48" height="48" viewBox="0 0 48 48" fill="none" xmlns="http://www.w3.org/2000/svg">
<circle cx="24" cy="24" r="24" fill="#FF6363"/>
<path d="M32.4852 15.5147C30.2187 13.2482 27.2053 12 24 12C20.7946 12 17.7812 13.2482 15.5147 15.5147C13.2483 17.7813 12 20.7947 12 24C12 27.2053 13.2482 30.2187 15.5147 32.4853C17.7813 34.7518 20.7947 36 24 36C27.2053 36 30.2187 34.7518 32.4853 32.4853C34.7518 30.2187 36 27.2053 36 24C36 20.7946 34.7517 17.7812 32.4852 15.5147ZM31.4908 31.4908C29.4899 33.4917 26.8296 34.5936 24 34.5936C21.1703 34.5936 18.51 33.4917 16.5091 31.4908C14.5083 29.49 13.4063 26.8296 13.4063 24C13.4063 21.1704 14.5083 18.51 16.5091 16.5091C18.51 14.5082 21.1703 13.4063 24 13.4063C26.8296 13.4063 29.4899 14.5082 31.4908 16.5091C33.4917 18.51 34.5936 21.1703 34.5936 24C34.5936 26.8297 33.4917 29.49 31.4908 31.4908Z" fill="white"/>
<path d="M29.7201 26.4961H18.2813C17.8929 26.4961 17.5781 26.8109 17.5781 27.1992C17.5781 27.5876 17.8929 27.9024 18.2813 27.9024H29.7201C30.1084 27.9024 30.4232 27.5876 30.4232 27.1992C30.4232 26.8109 30.1084 26.4961 29.7201 26.4961Z" fill="white"/>
<path d="M18.8555 22.2427H21.824C22.2123 22.2427 22.5271 21.9279 22.5271 21.5396C22.5271 21.1512 22.2123 20.8364 21.824 20.8364H18.8555C18.4672 20.8364 18.1523 21.1512 18.1523 21.5396C18.1523 21.9279 18.4672 22.2427 18.8555 22.2427Z" fill="white"/>
<path d="M26.1758 22.2427H29.1443C29.5326 22.2427 29.8474 21.9279 29.8474 21.5396C29.8474 21.1512 29.5326 20.8364 29.1443 20.8364H26.1758C25.7875 20.8364 25.4727 21.1512 25.4727 21.5396C25.4727 21.9279 25.7875 22.2427 26.1758 22.2427Z" fill="white"/>
</svg>
