<svg width="48" height="48" viewBox="0 0 48 48" fill="none" xmlns="http://www.w3.org/2000/svg">
<circle cx="24" cy="24" r="24" fill="#FF6363"/>
<path d="M34.541 14H13.4589C13.072 14 12.7009 14.1537 12.4273 14.4273C12.1537 14.7009 12 15.072 12 15.4589V35.2779C12 35.6648 12.1537 36.0359 12.4273 36.3095C12.7009 36.5831 13.072 36.7368 13.4589 36.7368H34.541C34.928 36.7368 35.2991 36.5831 35.5727 36.3095C35.8463 36.0359 36 35.6648 36 35.2779V15.4589C36 15.2674 35.9623 15.0776 35.8889 14.9006C35.8156 14.7236 35.7082 14.5628 35.5727 14.4273C35.4372 14.2918 35.2764 14.1844 35.0994 14.1111C34.9224 14.0377 34.7326 14 34.541 14ZM34.7368 35.2779C34.7368 35.3298 34.7162 35.3796 34.6795 35.4163C34.6428 35.4531 34.593 35.4737 34.541 35.4737H13.4589C13.407 35.4737 13.3572 35.4531 13.3205 35.4163C13.2838 35.3796 13.2632 35.3298 13.2632 35.2779V15.4589C13.2632 15.407 13.2838 15.3572 13.3205 15.3205C13.3572 15.2838 13.407 15.2632 13.4589 15.2632H34.541C34.593 15.2632 34.6428 15.2838 34.6795 15.3205C34.7162 15.3572 34.7368 15.407 34.7368 15.4589V35.2779Z" fill="white"/>
<path d="M24.0006 28.5261C25.1248 28.5261 26.2238 28.1928 27.1586 27.5682C28.0934 26.9436 28.8219 26.0558 29.2521 25.0172C29.6824 23.9785 29.7949 22.8356 29.5756 21.733C29.3563 20.6304 28.8149 19.6175 28.02 18.8226C27.225 18.0276 26.2122 17.4863 25.1096 17.2669C24.0069 17.0476 22.864 17.1602 21.8254 17.5904C20.7867 18.0206 19.899 18.7492 19.2744 19.6839C18.6498 20.6187 18.3164 21.7177 18.3164 22.8419C18.3164 24.3495 18.9153 25.7953 19.9813 26.8613C21.0473 27.9273 22.4931 28.5261 24.0006 28.5261ZM24.0006 18.4209C24.875 18.4209 25.7298 18.6802 26.4568 19.166C27.1839 19.6517 27.7505 20.3422 28.0851 21.1501C28.4198 21.9579 28.5073 22.8468 28.3367 23.7044C28.1661 24.562 27.7451 25.3498 27.1268 25.9681C26.5085 26.5864 25.7207 27.0074 24.8631 27.178C24.0055 27.3486 23.1166 27.2611 22.3088 26.9264C21.5009 26.5918 20.8104 26.0252 20.3246 25.2981C19.8389 24.5711 19.5796 23.7163 19.5796 22.8419C19.5796 21.6694 20.0454 20.5449 20.8745 19.7158C21.7036 18.8867 22.8281 18.4209 24.0006 18.4209Z" fill="white"/>
<path d="M31.5785 29.7896H16.4206C16.2531 29.7896 16.0925 29.8561 15.974 29.9745C15.8556 30.093 15.7891 30.2536 15.7891 30.4211C15.7891 30.5886 15.8556 30.7493 15.974 30.8677C16.0925 30.9862 16.2531 31.0527 16.4206 31.0527H31.5785C31.746 31.0527 31.9067 30.9862 32.0251 30.8677C32.1436 30.7493 32.2101 30.5886 32.2101 30.4211C32.2101 30.2536 32.1436 30.093 32.0251 29.9745C31.9067 29.8561 31.746 29.7896 31.5785 29.7896Z" fill="white"/>
<path d="M28.4209 32.3159H19.5788C19.4113 32.3159 19.2507 32.3825 19.1323 32.5009C19.0138 32.6193 18.9473 32.78 18.9473 32.9475C18.9473 33.115 19.0138 33.2756 19.1323 33.3941C19.2507 33.5125 19.4113 33.5791 19.5788 33.5791H28.4209C28.5885 33.5791 28.7491 33.5125 28.8675 33.3941C28.986 33.2756 29.0525 33.115 29.0525 32.9475C29.0525 32.78 28.986 32.6193 28.8675 32.5009C28.7491 32.3825 28.5885 32.3159 28.4209 32.3159Z" fill="white"/>
<path d="M21.9727 24.8692C22.0911 24.9869 22.2512 25.0529 22.418 25.0529C22.5849 25.0529 22.7449 24.9869 22.8633 24.8692L24.0001 23.7324L25.1306 24.8629C25.2515 24.9664 25.4069 25.0205 25.5658 25.0143C25.7248 25.0082 25.8756 24.9423 25.9881 24.8298C26.1005 24.7173 26.1664 24.5665 26.1726 24.4076C26.1787 24.2486 26.1246 24.0932 26.0212 23.9724L24.8906 22.8419L26.0212 21.7113C26.1246 21.5905 26.1787 21.4351 26.1726 21.2761C26.1664 21.1172 26.1005 20.9664 25.9881 20.8539C25.8756 20.7414 25.7248 20.6756 25.5658 20.6694C25.4069 20.6633 25.2515 20.7173 25.1306 20.8208L24.0001 21.9513L22.8696 20.8208C22.7488 20.7173 22.5934 20.6633 22.4344 20.6694C22.2754 20.6756 22.1247 20.7414 22.0122 20.8539C21.8997 20.9664 21.8338 21.1172 21.8277 21.2761C21.8215 21.4351 21.8756 21.5905 21.9791 21.7113L23.1096 22.8419L21.9791 23.9724C21.9194 24.0307 21.872 24.1002 21.8394 24.1769C21.8068 24.2537 21.7897 24.3361 21.7891 24.4195C21.7885 24.5029 21.8044 24.5855 21.8359 24.6627C21.8675 24.7399 21.914 24.8101 21.9727 24.8692Z" fill="white"/>
</svg>
