<svg width="48" height="48" viewBox="0 0 48 48" fill="none" xmlns="http://www.w3.org/2000/svg">
<circle cx="24" cy="24" r="24" fill="#5BB8C5"/>
<path d="M33.8906 15.8125H29.6631L28.8858 13.4808C28.7901 13.1936 28.5214 13 28.2188 13H19.7812C19.4786 13 19.2099 13.1936 19.1142 13.4808L18.3369 15.8125H14.1094C12.9463 15.8125 12 16.7588 12 17.9219V22.1406C12 22.4075 12.1511 22.6514 12.39 22.7702L12.7031 22.9259V31.9844C12.7031 33.1475 13.6494 34.0938 14.8125 34.0938H33.1875C34.3506 34.0938 35.2969 33.1475 35.2969 31.9844V22.9259L35.61 22.7702C35.8489 22.6514 36 22.4075 36 22.1406V17.9219C36 16.7588 35.0537 15.8125 33.8906 15.8125ZM20.2881 14.4062H27.712L28.1807 15.8125H19.8193L20.2881 14.4062ZM33.8906 31.9844C33.8906 32.3721 33.5752 32.6875 33.1875 32.6875H14.8125C14.4248 32.6875 14.1094 32.3721 14.1094 31.9844V23.6251L20.5358 26.8206C20.7468 27.7625 21.5891 28.4688 22.5938 28.4688H25.4062C26.4109 28.4688 27.2532 27.7625 27.4642 26.8206L33.8906 23.6251V31.9844ZM21.8906 26.3594C21.8906 25.9717 22.206 25.6562 22.5938 25.6562H25.4062C25.794 25.6562 26.1094 25.9717 26.1094 26.3594C26.1094 26.7471 25.794 27.0625 25.4062 27.0625H22.5938C22.206 27.0625 21.8906 26.7471 21.8906 26.3594ZM34.5938 21.705L27.2591 25.352C26.901 24.6961 26.2048 24.25 25.4062 24.25H22.5938C21.7952 24.25 21.099 24.6961 20.7409 25.352L13.4062 21.705V17.9219C13.4062 17.5342 13.7217 17.2188 14.1094 17.2188C14.5528 17.2188 33.471 17.2188 33.8906 17.2188C34.2783 17.2188 34.5938 17.5342 34.5938 17.9219V21.705Z" fill="white"/>
</svg>
