<svg width="48" height="48" viewBox="0 0 48 48" fill="none" xmlns="http://www.w3.org/2000/svg">
<circle cx="24" cy="24" r="24" fill="#676CEF"/>
<path d="M23.9983 15.9127C24.2853 15.9127 24.52 15.678 24.52 15.391V15.1301C24.52 14.8432 24.2853 14.6084 23.9983 14.6084C23.7113 14.6084 23.4766 14.8432 23.4766 15.1301V15.391C23.4766 15.678 23.7113 15.9127 23.9983 15.9127Z" fill="white"/>
<path d="M23.9983 32.0874C23.7113 32.0874 23.4766 32.3222 23.4766 32.6091V32.87C23.4766 33.157 23.7113 33.3918 23.9983 33.3918C24.2853 33.3918 24.52 33.157 24.52 32.87V32.6091C24.52 32.3222 24.2853 32.0874 23.9983 32.0874Z" fill="white"/>
<path d="M15.39 23.478H15.1292C14.8422 23.478 14.6074 23.7128 14.6074 23.9998C14.6074 24.2867 14.8422 24.5215 15.1292 24.5215H15.39C15.677 24.5215 15.9118 24.2867 15.9118 23.9998C15.9118 23.7128 15.677 23.478 15.39 23.478Z" fill="white"/>
<path d="M32.8705 23.478H32.6096C32.3227 23.478 32.0879 23.7128 32.0879 23.9998C32.0879 24.2867 32.3227 24.5215 32.6096 24.5215H32.8705C33.1575 24.5215 33.3922 24.2867 33.3922 23.9998C33.3922 23.7128 33.1575 23.478 32.8705 23.478Z" fill="white"/>
<path d="M18.1057 17.3738C17.897 17.1651 17.584 17.1651 17.3753 17.3738C17.1666 17.5825 17.1666 17.8955 17.3753 18.1042L17.5579 18.2869C17.6622 18.3912 17.7927 18.4434 17.9231 18.4434C18.0535 18.4434 18.184 18.3912 18.2883 18.2869C18.497 18.0782 18.497 17.7651 18.2883 17.5564L18.1057 17.3738Z" fill="white"/>
<path d="M17.5579 29.7132L17.3753 29.8958C17.1666 30.1045 17.1666 30.4175 17.3753 30.6262C17.4796 30.7306 17.6101 30.7827 17.7405 30.7827C17.8709 30.7827 18.0014 30.7306 18.1057 30.6262L18.2883 30.4436C18.497 30.2349 18.497 29.9219 18.2883 29.7132C18.0796 29.5045 17.7666 29.5045 17.5579 29.7132Z" fill="white"/>
<path d="M29.8958 17.3738L29.7132 17.5564C29.5045 17.7651 29.5045 18.0782 29.7132 18.2869C29.8175 18.3912 29.9479 18.4434 30.0784 18.4434C30.2088 18.4434 30.3392 18.3912 30.4436 18.2869L30.6262 18.1042C30.8349 17.8955 30.8349 17.5825 30.6262 17.3738C30.4175 17.1651 30.1045 17.1651 29.8958 17.3738Z" fill="white"/>
<path d="M24.52 23.7915V19.0437C24.52 18.7568 24.2853 18.522 23.9983 18.522C23.7113 18.522 23.4766 18.7568 23.4766 19.0437V24.0002C23.4766 24.1307 23.5287 24.2611 23.6331 24.3655L29.3461 30.0785C29.4505 30.1828 29.5809 30.235 29.7113 30.235C29.8418 30.235 29.9722 30.1828 30.0766 30.0785C30.2853 29.8698 30.2853 29.5568 30.0766 29.3481L24.52 23.7915Z" fill="white"/>
<path d="M24 12C17.3739 12 12 17.3739 12 24C12 30.6261 17.3739 36 24 36C30.6261 36 36 30.6261 36 24C36 17.3739 30.6261 12 24 12ZM24 34.9565C17.9478 34.9565 13.0435 30.0522 13.0435 24C13.0435 17.9478 17.9478 13.0435 24 13.0435C30.0522 13.0435 34.9565 17.9478 34.9565 24C34.9565 30.0522 30.0522 34.9565 24 34.9565Z" fill="white"/>
</svg>
