<svg width="22" height="22" viewBox="0 0 22 22" fill="none" xmlns="http://www.w3.org/2000/svg">
<path d="M20.2632 0H1.73684C0.777611 0 0 0.777611 0 1.73684V20.2632C0 21.2224 0.777611 22 1.73684 22H20.2632C21.2224 22 22 21.2224 22 20.2632V1.73684C22 0.777611 21.2224 0 20.2632 0Z" fill="#03A9F4"/>
<path d="M18.1293 6.58118C17.5933 6.81526 17.0264 6.97076 16.446 7.04289C17.0578 6.68008 17.5151 6.10531 17.7312 5.42763C17.1586 5.76752 16.532 6.0069 15.8786 6.13539C15.4782 5.70719 14.9582 5.40938 14.3863 5.2807C13.8143 5.15202 13.2169 5.19844 12.6717 5.4139C12.1265 5.62936 11.6587 6.00389 11.3293 6.4888C10.9998 6.9737 10.8239 7.54652 10.8244 8.13276C10.8223 8.35652 10.8452 8.57982 10.8924 8.79855C9.73014 8.74146 8.59298 8.43982 7.55522 7.91333C6.51745 7.38684 5.60243 6.64735 4.86992 5.74315C4.4934 6.38638 4.37675 7.14911 4.54381 7.87547C4.71087 8.60182 5.14903 9.23695 5.76873 9.65105C5.30619 9.63858 4.85344 9.51497 4.44873 9.29065V9.32249C4.45004 9.99672 4.68341 10.6499 5.10962 11.1724C5.53583 11.6948 6.1289 12.0545 6.78913 12.1912C6.53927 12.2568 6.2818 12.2889 6.02347 12.2867C5.83746 12.2901 5.65162 12.2736 5.46913 12.2375C5.65828 12.8173 6.02244 13.3243 6.51153 13.6888C7.00061 14.0532 7.59059 14.2571 8.20031 14.2725C7.16707 15.0801 5.89332 15.5188 4.58189 15.5187C4.34822 15.5207 4.11468 15.5071 3.88281 15.4782C5.21999 16.3403 6.77865 16.7958 8.36966 16.7895C13.7466 16.7895 16.6862 12.3359 16.6862 8.47578C16.6862 8.34697 16.6862 8.22249 16.6761 8.09802C17.2486 7.68485 17.741 7.17085 18.1293 6.58118Z" fill="white"/>
</svg>
